<svg xmlns="http://www.w3.org/2000/svg" viewBox="0 0 64 64">
  <defs>
    <linearGradient id="tile" x1="0" y1="0" x2="1" y2="1">
      <stop offset="0%" stop-color="#8A6BFF" />
      <stop offset="46%" stop-color="#5B3DF5" />
      <stop offset="100%" stop-color="#2A1690" />
    </linearGradient>
    <linearGradient id="sheen" x1="0.1" y1="0" x2="0.5" y2="1">
      <stop offset="0%" stop-color="#FFFFFF" stop-opacity="0.34" />
      <stop offset="60%" stop-color="#FFFFFF" stop-opacity="0" />
    </linearGradient>
    <linearGradient id="paper" x1="0" y1="0" x2="0.2" y2="1">
      <stop offset="0%" stop-color="#FFFFFF" />
      <stop offset="100%" stop-color="#DCD2FF" />
    </linearGradient>
    <mask id="cut">
      <rect width="64" height="64" fill="#FFFFFF" />
      <path d="M36.4 34.7a4.45 4.45 0 1 0-4.45 4.45 4.45 4.45 0 1 1-4.45 4.45"
        fill="none" stroke="#000000" stroke-width="4.1" stroke-linecap="round" />
    </mask>
  </defs>
  <rect width="64" height="64" rx="18" fill="url(#tile)" />
  <rect width="64" height="64" rx="18" fill="url(#sheen)" />
  <path d="M25.4 27.5v-6.2a6.6 6.6 0 0 1 13.2 0v6.2" fill="none" stroke="#FFA53D" stroke-width="3.4" stroke-linecap="round" />
  <path
    d="M19.2 24.6h25.6a3.1 3.1 0 0 1 3.09 3.4l-1.72 19.1A5.2 5.2 0 0 1 41 51.8H23a5.2 5.2 0 0 1-5.17-4.7L16.11 28a3.1 3.1 0 0 1 3.09-3.4z"
    fill="url(#paper)" mask="url(#cut)" />
</svg>
